<?xml version="1.0" standalone="no"?>
<!DOCTYPE svg PUBLIC "-//W3C//DTD SVG 20010904//EN"
 "http://www.w3.org/TR/2001/REC-SVG-20010904/DTD/svg10.dtd">
<svg version="1.0" xmlns="http://www.w3.org/2000/svg"
 width="260.000000pt" height="260.000000pt" viewBox="0 0 260.000000 260.000000"
 preserveAspectRatio="xMidYMid meet">
<metadata>
Created by potrace 1.14, written by Peter Selinger 2001-2017
</metadata>
<g transform="translate(0.000000,260.000000) scale(0.100000,-0.100000)"
fill="#000000" stroke="none">
<path d="M0 1300 l0 -1300 1300 0 1300 0 0 1300 0 1300 -1300 0 -1300 0 0
-1300z m1684 1056 c68 -72 99 -112 125 -164 12 -23 40 -59 62 -80 108 -99 135
-170 83 -211 -15 -12 -35 -21 -46 -21 -10 0 -51 30 -91 68 l-72 67 -7 -120
c-3 -66 -11 -172 -17 -235 -6 -63 -11 -296 -11 -516 0 -391 -1 -402 -21 -428
-28 -36 -80 -36 -108 0 -21 26 -21 37 -20 443 0 229 4 463 10 521 5 58 12 191
15 295 l6 190 -36 -50 c-19 -27 -51 -70 -71 -95 -20 -25 -73 -99 -118 -165
-88 -128 -118 -153 -165 -137 -34 11 -58 57 -46 89 9 23 146 223 250 363 30
41 71 105 89 142 61 118 109 129 189 44z m-833 -135 c27 -22 32 -83 9 -105 -8
-8 -46 -26 -85 -41 -94 -35 -181 -85 -254 -145 -67 -57 -67 -57 -77 -156 l-6
-70 69 -32 c38 -18 77 -32 85 -32 9 0 40 11 69 24 41 18 80 26 161 31 135 8
176 -3 234 -64 83 -86 114 -227 114 -517 0 -219 -7 -254 -67 -336 -114 -154
-197 -189 -453 -196 l-165 -4 -70 48 c-211 143 -269 234 -230 367 19 65 47 92
106 102 50 9 93 -8 108 -42 16 -36 -2 -78 -40 -93 -22 -9 -29 -19 -29 -39 0
-34 5 -40 70 -93 121 -97 123 -98 240 -98 150 0 227 23 291 86 82 81 89 104
89 295 0 240 -27 372 -85 417 -24 19 -35 21 -104 15 -51 -4 -92 -14 -125 -30
-71 -36 -167 -30 -253 15 -34 17 -69 32 -77 32 -9 0 -30 13 -48 29 l-33 30 1
128 c0 73 6 144 13 166 7 21 36 62 65 92 50 51 197 155 219 155 6 0 19 7 28
16 22 20 144 63 180 64 15 0 37 -8 50 -19z"/>
</g>
</svg>
